<svg width="25" height="24" viewBox="0 0 25 24" fill="none" xmlns="http://www.w3.org/2000/svg">
<path d="M12.5 15C14.1569 15 15.5 13.6569 15.5 12C15.5 10.3431 14.1569 9 12.5 9C10.8431 9 9.5 10.3431 9.5 12C9.5 13.6569 10.8431 15 12.5 15Z" stroke="#404B69" stroke-width="1.5" stroke-miterlimit="10" stroke-linecap="round" stroke-linejoin="round"/>
<path d="M2.5 12.8794V11.1194C2.5 10.0794 3.35 9.21945 4.4 9.21945C6.21 9.21945 6.95 7.93945 6.04 6.36945C5.52 5.46945 5.83 4.29945 6.74 3.77945L8.47 2.78945C9.26 2.31945 10.28 2.59945 10.75 3.38945L10.86 3.57945C11.76 5.14945 13.24 5.14945 14.15 3.57945L14.26 3.38945C14.73 2.59945 15.75 2.31945 16.54 2.78945L18.27 3.77945C19.18 4.29945 19.49 5.46945 18.97 6.36945C18.06 7.93945 18.8 9.21945 20.61 9.21945C21.65 9.21945 22.51 10.0694 22.51 11.1194V12.8794C22.51 13.9194 21.66 14.7794 20.61 14.7794C18.8 14.7794 18.06 16.0594 18.97 17.6294C19.49 18.5394 19.18 19.6994 18.27 20.2194L16.54 21.2094C15.75 21.6794 14.73 21.3994 14.26 20.6094L14.15 20.4194C13.25 18.8494 11.77 18.8494 10.86 20.4194L10.75 20.6094C10.28 21.3994 9.26 21.6794 8.47 21.2094L6.74 20.2194C5.83 19.6994 5.52 18.5294 6.04 17.6294C6.95 16.0594 6.21 14.7794 4.4 14.7794C3.35 14.7794 2.5 13.9194 2.5 12.8794Z" stroke="#404B69" stroke-width="1.5" stroke-miterlimit="10" stroke-linecap="round" stroke-linejoin="round"/>
</svg>
