<svg width="25" height="24" viewBox="0 0 25 24" fill="none" xmlns="http://www.w3.org/2000/svg">
<path d="M21.4099 11.1203C21.4099 16.0103 17.8599 20.5903 13.0099 21.9303C12.6799 22.0203 12.3198 22.0203 11.9898 21.9303C7.13984 20.5903 3.58984 16.0103 3.58984 11.1203V6.73028C3.58984 5.91028 4.20986 4.98028 4.97986 4.67028L10.5498 2.39031C11.7998 1.88031 13.2098 1.88031 14.4598 2.39031L20.0298 4.67028C20.7898 4.98028 21.4199 5.91028 21.4199 6.73028L21.4099 11.1203Z" stroke="#404B69" stroke-width="1.5" stroke-linecap="round" stroke-linejoin="round"/>
<path d="M12.5 12.5C13.6046 12.5 14.5 11.6046 14.5 10.5C14.5 9.39543 13.6046 8.5 12.5 8.5C11.3954 8.5 10.5 9.39543 10.5 10.5C10.5 11.6046 11.3954 12.5 12.5 12.5Z" stroke="#404B69" stroke-width="1.5" stroke-miterlimit="10" stroke-linecap="round" stroke-linejoin="round"/>
<path d="M12.5 12.5V15.5" stroke="#404B69" stroke-width="1.5" stroke-miterlimit="10" stroke-linecap="round" stroke-linejoin="round"/>
</svg>
