<svg width="25" height="24" viewBox="0 0 25 24" fill="none" xmlns="http://www.w3.org/2000/svg">
<path d="M12.5 12C15.2614 12 17.5 9.76142 17.5 7C17.5 4.23858 15.2614 2 12.5 2C9.73858 2 7.5 4.23858 7.5 7C7.5 9.76142 9.73858 12 12.5 12Z" stroke="#404B69" stroke-width="1.5" stroke-linecap="round" stroke-linejoin="round"/>
<path d="M19.7101 15.741L16.17 19.281C16.03 19.421 15.9 19.681 15.87 19.871L15.68 21.221C15.61 21.711 15.95 22.051 16.44 21.981L17.79 21.791C17.98 21.761 18.25 21.631 18.38 21.491L21.92 17.951C22.53 17.341 22.82 16.631 21.92 15.731C21.03 14.841 20.3201 15.131 19.7101 15.741Z" stroke="#404B69" stroke-width="1.5" stroke-miterlimit="10" stroke-linecap="round" stroke-linejoin="round"/>
<path d="M19.2002 16.25C19.5002 17.33 20.3402 18.17 21.4202 18.47" stroke="#404B69" stroke-width="1.5" stroke-miterlimit="10" stroke-linecap="round" stroke-linejoin="round"/>
<path d="M3.91016 22C3.91016 18.13 7.76018 15 12.5002 15C13.5402 15 14.5402 15.15 15.4702 15.43" stroke="#404B69" stroke-width="1.5" stroke-linecap="round" stroke-linejoin="round"/>
</svg>
