<svg width="25" height="24" viewBox="0 0 25 24" fill="none" xmlns="http://www.w3.org/2000/svg">
<path d="M12.5 22C18 22 22.5 17.5 22.5 12C22.5 6.5 18 2 12.5 2C7 2 2.5 6.5 2.5 12C2.5 17.5 7 22 12.5 22Z" stroke="#404B69" stroke-width="1.5" stroke-linecap="round" stroke-linejoin="round"/>
<path d="M12.7119 6C13.6784 6 14.4814 6.25279 15.1208 6.75836C15.7602 7.26394 16.0799 7.99257 16.0799 8.94424C16.0799 9.61338 15.9461 10.1636 15.6784 10.5948C15.4108 11.026 15.0167 11.487 14.4963 11.9777C14.4219 12.052 14.1989 12.2677 13.8271 12.6245C13.4703 12.9665 13.2249 13.3309 13.0911 13.7175C12.9572 14.0892 12.8903 14.5353 12.8903 15.0558H11.4851C11.4851 13.9703 11.7379 13.0929 12.2435 12.4238C12.4368 12.1859 12.7639 11.8513 13.2249 11.4201C13.7305 10.9442 14.1022 10.5428 14.3401 10.2156C14.5929 9.87361 14.7193 9.48699 14.7193 9.05576C14.7193 8.46097 14.5335 8.02231 14.1617 7.73978C13.8048 7.44238 13.2918 7.29368 12.6227 7.29368C12.0725 7.29368 11.6041 7.35316 11.2175 7.47212C10.8457 7.57621 10.4219 7.73978 9.9461 7.96283L9.5 6.75836C10.0353 6.52045 10.5409 6.33457 11.0167 6.20074C11.5074 6.06691 12.0725 6 12.7119 6ZM12.1766 18C11.9089 18 11.7007 17.9182 11.552 17.7546C11.4033 17.6059 11.329 17.4052 11.329 17.1524C11.329 16.8996 11.4033 16.6989 11.552 16.5502C11.7007 16.3866 11.9089 16.3048 12.1766 16.3048C12.4442 16.3048 12.6524 16.3866 12.8011 16.5502C12.9498 16.6989 13.0242 16.8996 13.0242 17.1524C13.0242 17.4052 12.9498 17.6059 12.8011 17.7546C12.6524 17.9182 12.4442 18 12.1766 18Z" fill="#404B69"/>
</svg>
