<svg width="25" height="24" viewBox="0 0 25 24" fill="none" xmlns="http://www.w3.org/2000/svg">
<path d="M17.46 6.16992C19.46 7.55992 20.84 9.76992 21.12 12.3199" stroke="#404B69" stroke-width="1.5" stroke-linecap="round" stroke-linejoin="round"/>
<path d="M3.99023 12.3707C4.25023 9.8307 5.61023 7.6207 7.59023 6.2207" stroke="#404B69" stroke-width="1.5" stroke-linecap="round" stroke-linejoin="round"/>
<path d="M8.69043 20.9395C9.85043 21.5295 11.1704 21.8595 12.5604 21.8595C13.9004 21.8595 15.1604 21.5595 16.2904 21.0095" stroke="#404B69" stroke-width="1.5" stroke-linecap="round" stroke-linejoin="round"/>
<path d="M12.5603 7.70062C14.0956 7.70062 15.3403 6.45598 15.3403 4.92062C15.3403 3.38527 14.0956 2.14062 12.5603 2.14062C11.0249 2.14062 9.78027 3.38527 9.78027 4.92062C9.78027 6.45598 11.0249 7.70062 12.5603 7.70062Z" stroke="#404B69" stroke-width="1.5" stroke-linecap="round" stroke-linejoin="round"/>
<path d="M5.3298 19.9194C6.86516 19.9194 8.10981 18.6747 8.10981 17.1394C8.10981 15.604 6.86516 14.3594 5.3298 14.3594C3.79445 14.3594 2.5498 15.604 2.5498 17.1394C2.5498 18.6747 3.79445 19.9194 5.3298 19.9194Z" stroke="#404B69" stroke-width="1.5" stroke-linecap="round" stroke-linejoin="round"/>
<path d="M19.6696 19.9194C21.205 19.9194 22.4496 18.6747 22.4496 17.1394C22.4496 15.604 21.205 14.3594 19.6696 14.3594C18.1343 14.3594 16.8896 15.604 16.8896 17.1394C16.8896 18.6747 18.1343 19.9194 19.6696 19.9194Z" stroke="#404B69" stroke-width="1.5" stroke-linecap="round" stroke-linejoin="round"/>
</svg>
