<svg width="25" height="24" viewBox="0 0 25 24" fill="none" xmlns="http://www.w3.org/2000/svg">
<path d="M11.52 19.5H8C7.38 19.5 6.83 19.48 6.34 19.41C3.71 19.12 3 17.88 3 14.5V9.5C3 6.12 3.71 4.88 6.34 4.59C6.83 4.52 7.38 4.5 8 4.5H11.46" stroke="#404B69" stroke-width="1.5" stroke-linecap="round" stroke-linejoin="round"/>
<path d="M15.5195 4.5H16.9995C17.6195 4.5 18.1695 4.52 18.6595 4.59C21.2895 4.88 21.9995 6.12 21.9995 9.5V14.5C21.9995 17.88 21.2895 19.12 18.6595 19.41C18.1695 19.48 17.6195 19.5 16.9995 19.5H15.5195" stroke="#404B69" stroke-width="1.5" stroke-linecap="round" stroke-linejoin="round"/>
<path d="M15.5 2V22" stroke="#404B69" stroke-width="1.5" stroke-linecap="round" stroke-linejoin="round"/>
<path d="M11.5941 12H11.6031" stroke="#404B69" stroke-width="2" stroke-linecap="round" stroke-linejoin="round"/>
<path d="M7.59412 12H7.6031" stroke="#404B69" stroke-width="2" stroke-linecap="round" stroke-linejoin="round"/>
</svg>
